<svg width="41" height="40" viewBox="0 0 41 40" fill="none" xmlns="http://www.w3.org/2000/svg">
<path fill-rule="evenodd" clip-rule="evenodd" d="M35.4315 0.0551984C34.562 0.200622 33.6126 0.724021 32.9647 1.41535C32.1572 2.27687 31.8161 3.14418 31.8153 4.33819C31.8149 5.07821 31.9329 5.61403 32.2543 6.33083C32.2918 6.41452 31.284 7.47046 28.7301 10.0234L25.1534 13.5986L24.7632 13.3371C22.8678 12.0663 20.3219 12.066 18.4342 13.3361L18.0442 13.5986L15.2573 10.8129L12.4704 8.02707L12.6346 7.66738C12.7634 7.38529 12.7997 7.14742 12.8028 6.56526C12.8061 5.9198 12.7796 5.765 12.5988 5.37944C12.0622 4.23505 11.0365 3.61881 9.78325 3.68789C7.51287 3.81315 6.28558 6.3778 7.61056 8.2279C8.38441 9.30838 9.84772 9.73105 11.0397 9.21836L11.4527 9.04066L14.2328 11.8205L17.0129 14.6003L16.7484 15.0123C16.0899 16.0383 15.8155 16.975 15.8155 18.1965C15.8155 19.404 16.1316 20.4698 16.7612 21.3846L17.0081 21.7435L12.3942 26.3569L7.7803 30.9703L7.48004 30.7338C5.79854 29.4095 3.33278 29.5815 1.7939 31.1307C0.0715962 32.8646 0.0683141 35.5205 1.7864 37.2366C2.67232 38.1216 3.63241 38.5256 4.84962 38.5256C6.05073 38.5256 7.08202 38.1055 7.91879 37.2753C8.80041 36.4007 9.20696 35.4073 9.19797 34.1496C9.19305 33.4569 9.063 32.8835 8.75501 32.196C8.71742 32.1122 10.0267 30.755 13.3523 27.4304L18.0023 22.7818L18.218 22.9198C18.9146 23.3655 19.7456 23.7219 20.4265 23.8668L20.8563 23.9584L20.8766 27.6395L20.8969 31.3208L20.3686 31.4824C18.2223 32.1391 16.8794 34.3478 17.3299 36.4804C18.0486 39.883 22.1529 41.1685 24.6185 38.7635C25.7235 37.6856 26.1796 36.1171 25.8237 34.6185C25.4816 33.1776 24.2895 31.9293 22.8288 31.4824L22.3006 31.3208L22.3209 27.647L22.3412 23.9732L22.9273 23.8253C23.4761 23.6868 24.49 23.2405 24.9796 22.9221L25.1953 22.7817L27.9681 25.5549L30.7408 28.328L30.5372 28.8311C30.3605 29.2677 30.3381 29.4184 30.3672 29.9726C30.4259 31.0924 31.0224 31.9694 32.0534 32.4521C32.5137 32.6675 32.6616 32.6982 33.2433 32.6982C33.8213 32.6982 33.9736 32.6672 34.4156 32.4592C35.0595 32.1563 35.5458 31.6712 35.854 31.0239C36.0689 30.5725 36.0958 30.4376 36.0958 29.811C36.0958 29.1758 36.0711 29.056 35.8461 28.5998C35.4126 27.7213 34.6126 27.1178 33.6927 26.9755C33.1654 26.894 32.4701 26.983 32.0577 27.185L31.7709 27.3254L28.9803 24.5343L26.1897 21.7431L26.4372 21.3834C27.0393 20.5083 27.3796 19.3478 27.3796 18.1694C27.3796 16.9902 27.0856 16.0043 26.4287 14.9807L26.1847 14.6004L29.6898 11.0951L33.195 7.58971L33.5513 7.84906C34.3875 8.45787 35.1744 8.70949 36.2131 8.70004C37.3921 8.68933 38.2634 8.33527 39.1229 7.51735C40.5442 6.16486 40.8942 4.22543 40.0379 2.4473C39.2241 0.757466 37.2775 -0.253387 35.4315 0.0551984ZM37.3463 1.74503C39.042 2.53177 39.5636 4.69601 38.409 6.15517C36.9371 8.01535 33.9783 7.39904 33.3535 5.10212C32.9696 3.69094 33.6978 2.25874 35.0978 1.67134C35.7384 1.40253 36.6741 1.43324 37.3463 1.74503ZM10.384 5.16776C10.8169 5.28731 11.2473 5.75523 11.3448 6.21213C11.5571 7.20775 10.8387 8.03864 9.83717 7.95557C9.16726 7.90001 8.69381 7.48781 8.54572 6.83118C8.40168 6.19252 8.8312 5.41305 9.44618 5.19714C9.83053 5.06219 9.98441 5.05742 10.384 5.16776ZM22.6067 13.9526C23.7912 14.2318 24.9116 15.1129 25.457 16.1942C26.1183 17.5053 26.1249 18.8563 25.4763 20.1441C24.7307 21.6245 23.2707 22.5185 21.5987 22.5185C17.7034 22.5185 15.7774 17.8194 18.5529 15.087C19.6089 14.0473 21.1632 13.6125 22.6067 13.9526ZM33.8385 28.5165C34.1707 28.6673 34.5105 29.0456 34.6115 29.3771C34.7025 29.6759 34.6668 30.2179 34.5397 30.4636C33.8431 31.8105 31.7885 31.3192 31.8091 29.8107C31.8236 28.7471 32.8728 28.078 33.8385 28.5165ZM5.95164 31.51C6.54035 31.7271 7.21386 32.3735 7.49817 32.9945C7.69277 33.4194 7.72302 33.5799 7.72302 34.1887C7.72302 34.796 7.69262 34.9583 7.50029 35.3782C7.23957 35.9475 6.61647 36.5797 6.08418 36.8152C4.61845 37.4635 2.94812 36.8563 2.24202 35.4186C2.04508 35.0175 2.02179 34.8876 2.02179 34.1887C2.02179 33.4898 2.04508 33.3599 2.24202 32.9588C2.9235 31.5713 4.47457 30.9655 5.95164 31.51ZM22.3856 32.8691C22.9853 33.0471 23.5838 33.471 23.9423 33.9717C25.0034 35.4533 24.4543 37.496 22.7847 38.2787C22.402 38.458 22.2393 38.4865 21.5987 38.4865C20.9581 38.4865 20.7955 38.458 20.4128 38.2787C18.4141 37.3418 18.1086 34.6794 19.8469 33.3472C20.5593 32.8011 21.5368 32.6171 22.3856 32.8691Z" fill="black"/>
<path d="M37.3463 1.74503C39.042 2.53177 39.5636 4.69601 38.409 6.15517C36.9371 8.01535 33.9783 7.39904 33.3535 5.10212C32.9696 3.69094 33.6978 2.25874 35.0978 1.67134C35.7384 1.40253 36.6741 1.43324 37.3463 1.74503Z" fill="black"/>
<path d="M33.8385 28.5165C34.1707 28.6673 34.5105 29.0456 34.6115 29.3771C34.7025 29.6759 34.6668 30.2179 34.5397 30.4636C33.8431 31.8105 31.7885 31.3192 31.8091 29.8107C31.8236 28.7471 32.8728 28.078 33.8385 28.5165Z" fill="black"/>
<path d="M22.3856 32.8691C22.9853 33.0471 23.5838 33.471 23.9423 33.9717C25.0034 35.4533 24.4543 37.496 22.7847 38.2787C22.402 38.458 22.2393 38.4865 21.5987 38.4865C20.9581 38.4865 20.7955 38.458 20.4128 38.2787C18.4141 37.3418 18.1086 34.6794 19.8469 33.3472C20.5593 32.8011 21.5368 32.6171 22.3856 32.8691Z" fill="black"/>
<path d="M5.95164 31.51C6.54035 31.7271 7.21386 32.3735 7.49817 32.9945C7.69277 33.4194 7.72302 33.5799 7.72302 34.1887C7.72302 34.796 7.69262 34.9583 7.50029 35.3782C7.23957 35.9475 6.61647 36.5797 6.08418 36.8152C4.61845 37.4635 2.94812 36.8563 2.24202 35.4186C2.04508 35.0175 2.02179 34.8876 2.02179 34.1887C2.02179 33.4898 2.04508 33.3599 2.24202 32.9588C2.9235 31.5713 4.47457 30.9655 5.95164 31.51Z" fill="black"/>
<path d="M10.384 5.16776C10.8169 5.28731 11.2473 5.75523 11.3448 6.21213C11.5571 7.20775 10.8387 8.03864 9.83717 7.95557C9.16726 7.90001 8.69381 7.48781 8.54572 6.83118C8.40168 6.19252 8.8312 5.41305 9.44618 5.19714C9.83053 5.06219 9.98441 5.05742 10.384 5.16776Z" fill="black"/>
<path d="M22.6067 13.9526C23.7912 14.2318 24.9116 15.1129 25.457 16.1942C26.1183 17.5053 26.1249 18.8563 25.4763 20.1441C24.7307 21.6245 23.2707 22.5185 21.5987 22.5185C17.7034 22.5185 15.7774 17.8194 18.5529 15.087C19.6089 14.0473 21.1632 13.6125 22.6067 13.9526Z" fill="black"/>
</svg>
